<?xml version="1.0" standalone="no"?><svg xmlns="http://www.w3.org/2000/svg" viewBox="0 0 1440 320"><path fill="#0099ff" fill-opacity="1" d="M0,288L8.3,261.3C16.6,235,33,181,50,149.3C66.2,117,83,107,99,122.7C115.9,139,132,181,149,208C165.5,235,182,245,199,250.7C215.2,256,232,256,248,261.3C264.8,267,281,277,298,282.7C314.5,288,331,288,348,245.3C364.1,203,381,117,397,74.7C413.8,32,430,32,447,64C463.4,96,480,160,497,192C513.1,224,530,224,546,234.7C562.8,245,579,267,596,256C612.4,245,629,203,646,165.3C662.1,128,679,96,695,112C711.7,128,728,192,745,202.7C761.4,213,778,171,794,160C811,149,828,171,844,197.3C860.7,224,877,256,894,266.7C910.3,277,927,267,943,245.3C960,224,977,192,993,192C1009.7,192,1026,224,1043,218.7C1059.3,213,1076,171,1092,149.3C1109,128,1126,128,1142,154.7C1158.6,181,1175,235,1192,240C1208.3,245,1225,203,1241,176C1257.9,149,1274,139,1291,154.7C1307.6,171,1324,213,1341,229.3C1357.2,245,1374,235,1390,218.7C1406.9,203,1423,181,1432,170.7L1440,160L1440,320L1431.7,320C1423.4,320,1407,320,1390,320C1373.8,320,1357,320,1341,320C1324.1,320,1308,320,1291,320C1274.5,320,1258,320,1241,320C1224.8,320,1208,320,1192,320C1175.2,320,1159,320,1142,320C1125.5,320,1109,320,1092,320C1075.9,320,1059,320,1043,320C1026.2,320,1010,320,993,320C976.6,320,960,320,943,320C926.9,320,910,320,894,320C877.2,320,861,320,844,320C827.6,320,811,320,794,320C777.9,320,761,320,745,320C728.3,320,712,320,695,320C678.6,320,662,320,646,320C629,320,612,320,596,320C579.3,320,563,320,546,320C529.7,320,513,320,497,320C480,320,463,320,447,320C430.3,320,414,320,397,320C380.7,320,364,320,348,320C331,320,314,320,298,320C281.4,320,265,320,248,320C231.7,320,215,320,199,320C182.1,320,166,320,149,320C132.4,320,116,320,99,320C82.8,320,66,320,50,320C33.1,320,17,320,8,320L0,320Z"></path></svg>